<svg width="70" height="57" fill="none" xmlns="http://www.w3.org/2000/svg"><path d="M46.492.159c-5.604 1.464-8.967 8.464-6.603 13.727 2.997 6.652 12.012 5.783 15.375-1.465.706-1.539.78-1.886.78-4.17 0-2.21-.074-2.631-.683-3.897a8.377 8.377 0 00-3.63-3.699C50.586.06 47.88-.189 46.49.16zm3.825 4.294c1.267.894 1.78 1.763 1.901 3.252.439 5.535-6.189 9.184-8.65 4.741-2.34-4.195 3.021-10.55 6.75-7.993zM18.713.581c-1.486.547-3.338 2.359-4.142 4.022-.61 1.266-.682 1.688-.682 3.897 0 2.284.073 2.631.78 4.17 1.583 3.426 4.653 5.66 8.04 5.833 2.29.124 3.826-.397 5.41-1.837C31.87 13.241 31.7 7.01 27.753 2.99 25.926 1.128 24.171.333 21.686.26c-1.291-.05-2.29.074-2.973.322zm4.752 4.047c1.973 1.042 3.216 3.003 3.41 5.361.44 5.635-6.286 6.305-8.698.869-.974-2.21-.463-4.965 1.17-6.106 1.096-.745 2.826-.795 4.118-.124zM60.186 16.89c-3.192.843-5.483 2.68-6.871 5.585-.878 1.762-.926 2.035-.926 4.12 0 1.862.097 2.458.56 3.4.731 1.515 1.974 2.806 3.533 3.65 1.121.595 1.535.67 3.606.67 2.193 0 2.413-.05 4.143-.918 6.895-3.476 7.821-12.71 1.632-15.813-1.803-.918-3.874-1.166-5.677-.694zm4.24 4.343c1.583 1.192 2.046 2.905 1.364 4.99-1.023 3.177-5.02 5.163-7.675 3.798-2.608-1.316-2.632-5.015-.025-7.596 1.78-1.762 4.825-2.333 6.336-1.192zM5.093 17.807c-1.901.62-3.51 2.035-4.41 3.922C.096 22.945 0 23.442 0 25.279c0 1.936.073 2.258.926 3.996 3.411 7.05 12.646 7.943 15.96 1.564.585-1.092.658-1.514.658-3.6-.025-2.06-.098-2.531-.707-3.773-1.389-2.929-4.215-5.262-7.164-5.883-1.778-.372-2.85-.322-4.58.224zm5.165 4.12c2.802 1.366 4.289 4.915 3.07 7.298-.56 1.068-2.217 1.986-3.582 1.986-2.923 0-5.97-3.177-5.97-6.18 0-1.366 1.073-2.905 2.437-3.476.829-.372 2.924-.174 4.045.372zm21.322 1.491c-3.217.869-6.384 3.574-7.87 6.776-.853 1.788-.902 1.837-2.656 2.706-1.292.62-2.266 1.34-3.387 2.507-6.823 7.075-3.607 18.741 5.848 21.248 3.24.869 7.456.05 10.209-1.936l1.243-.918 1.242.918c2.705 1.986 6.701 2.755 10.064 1.961 5.677-1.365 9.649-6.528 9.649-12.51 0-4.642-2.9-9.26-7.067-11.295-1.803-.893-1.827-.918-2.655-2.706-1.487-3.276-4.874-6.081-8.31-6.875-1.559-.373-4.75-.298-6.31.124zm6.408 4.095c2.412.894 4.581 3.351 5.288 5.933.414 1.49.804 1.936 2.168 2.333 1.852.571 2.973 1.266 4.215 2.607 1.755 1.911 2.242 3.152 2.242 5.858 0 1.886-.097 2.432-.633 3.624-.902 1.96-2.193 3.301-4.07 4.245-1.461.744-1.827.819-3.825.819-1.9 0-2.363-.1-3.557-.67-.756-.398-1.974-1.316-2.73-2.06-1.827-1.838-2.387-1.838-4.264 0-.755.769-1.998 1.687-2.729 2.06-1.17.57-1.632.67-3.533.67-1.851 0-2.412-.1-3.557-.646-1.925-.918-3.24-2.234-4.167-4.145-.73-1.514-.804-1.862-.804-3.897.024-2.706.512-3.972 2.242-5.858 1.242-1.34 2.363-2.036 4.215-2.607 1.365-.397 1.755-.844 2.169-2.333.706-2.557 2.875-5.014 5.214-5.933 1.73-.67 4.362-.695 6.116 0z" opacity=".7" fill="#F6A6BF"/></svg>