<svg width="90" height="90" fill="none" xmlns="http://www.w3.org/2000/svg"><path d="M32.986 16.735c-2.927 4.998-.355 12.326 5.037 14.376 6.823 2.585 12.584-4.405 9.836-11.908-.588-1.588-.782-1.885-2.397-3.5-1.562-1.562-1.912-1.809-3.238-2.273a8.378 8.378 0 00-5.183-.048c-1.23.388-3.319 2.125-4.055 3.353zM13.644 36.676c-.665 1.437-.693 4.028-.085 5.772.464 1.326.71 1.676 2.273 3.238 1.615 1.615 1.912 1.81 3.5 2.398 3.542 1.302 7.293.71 9.81-1.561 1.708-1.532 2.425-2.986 2.527-5.124.23-5.075-4.295-9.36-9.93-9.413-2.609-.024-4.41.655-6.221 2.36-.948.878-1.567 1.672-1.874 2.33zM54.5 18.883c-1.66 2.854-1.98 5.772-.91 8.808.627 1.866.785 2.094 2.26 3.568 1.316 1.316 1.806 1.669 2.8 2.008 1.588.554 3.38.588 5.08.082 1.213-.371 1.559-.611 3.023-2.076 1.55-1.55 1.67-1.74 2.28-3.578 2.418-7.334-3.456-14.518-10.027-12.335-1.924.625-3.564 1.914-4.506 3.523zM16.192 58.488c-.905 1.782-1.042 3.92-.345 5.891.446 1.274.728 1.694 2.027 2.993 1.37 1.369 1.65 1.545 3.48 2.171 7.398 2.573 14.56-3.325 12.392-10.18-.359-1.185-.605-1.535-2.08-3.01-1.474-1.44-1.86-1.721-3.167-2.168-3.054-1.09-6.702-.74-9.226.906-1.52.994-2.244 1.787-3.08 3.397zm21.923-4.404c-1.213-3.316-.886-7.469.774-10.357.804-1.401 3.008-3.711 4.374-4.55 2.991-1.868 7.37-2.28 10.738-1.014 1.85.678 1.884.679 3.79.035 4.386-1.507 9.701-.292 12.984 2.99 4.23 4.23 5.072 10.69 2.023 15.67-1.816 2.939-5.186 5.22-8.502 5.729l-1.529.229-.229 1.528c-.543 3.351-2.944 6.91-5.85 8.588-8.458 4.912-18.982-1.063-19.16-10.89-.032-1.617.148-2.815.622-4.167.627-1.855.626-1.925-.035-3.791z" opacity=".7" fill="#F6A6BF"/></svg>