<svg width="187" height="61" fill="none" xmlns="http://www.w3.org/2000/svg"><g clip-path="url(#clip0_13_1622)"><path fill-rule="evenodd" clip-rule="evenodd" d="M170.941 23.409c.17-1.769.693-3.483 1.538-5.039a3.142 3.142 0 011.225-1.362 3.07 3.07 0 011.763-.437 2.744 2.744 0 011.6.686c.447.396.757.929.883 1.518.474 1.68.572 3.447.286 5.17a13.184 13.184 0 01-1.517 5.08 3.105 3.105 0 01-1.221 1.337 3.036 3.036 0 01-1.746.418 2.75 2.75 0 01-1.604-.696 2.824 2.824 0 01-.879-1.531 12.242 12.242 0 01-.328-5.144zm15.952 1.173a11.35 11.35 0 00-.292-4.7 11.235 11.235 0 00-2.169-4.162 11.48 11.48 0 00-3.738-2.993 11.308 11.308 0 00-4.612-1.192 12.59 12.59 0 00-9.205 2.925 12.276 12.276 0 00-3.12 3.692 12.463 12.463 0 00-1.472 4.631 11.32 11.32 0 00.297 4.704 11.195 11.195 0 002.185 4.158 11.553 11.553 0 003.751 2.99 11.385 11.385 0 004.62 1.195c3.34.313 6.666-.73 9.251-2.903a12.367 12.367 0 003.07-3.716 12.563 12.563 0 001.434-4.63zm-26.103 6.973c-3.311-2.219-5.376-4.828-6.197-7.828 3.749-1.8 5.77-3.959 6.065-6.478a5.19 5.19 0 00-.12-2.145 5.112 5.112 0 00-.979-1.903 4.862 4.862 0 00-1.773-1.264 4.792 4.792 0 00-2.138-.356 5.865 5.865 0 00-3.339 1.035c-.42.216-.784.527-1.066.91a3.134 3.134 0 00-.56 1.295l.395.719c.291.476.535.981.726 1.508.189.61.174 1.266-.045 1.866a3.75 3.75 0 01-1.56 1.935 7.462 7.462 0 01-2.856 1.125l.527-3.69a6.575 6.575 0 00-1.12-4.993 5.102 5.102 0 00-1.883-1.427 5.019 5.019 0 00-2.312-.418 6.76 6.76 0 00-3.472 1.013 5.248 5.248 0 00-2.241 2.182.448.448 0 00-.04.343.427.427 0 00.219.264c.234.166.512.353.834.563a2.85 2.85 0 01.769 1.778c.195 1.29.202 2.6.022 3.891l-1.806 13.352v.09l.133.091h8.436a.268.268 0 00.179-.181l1.274-9.223c.129-.037.262-.06.395-.067.179-.015.308-.022.396-.022 0 .149.015.502.044 1.057l.066 1.26c.015.285.059.727.132 1.327.051.48.141.953.268 1.417.102.345.248.78.439 1.305.153.457.384.883.681 1.26.311.363.641.709.989 1.034.38.365.829.648 1.319.832a10.345 10.345 0 003.932.589 8.021 8.021 0 005.229-2.475c.29-.25.491-.59.572-.967a1.216 1.216 0 00-.534-.607v.003zm-28.257-5.668c.235-2.07.879-6.523 1.934-13.361v-.09l-.132-.136H125.5l-.221.272-1.493 12.372a7.427 7.427 0 01-1.143 3.149c-.732 1.17-1.493 1.68-2.285 1.53-.791-.151-1.099-1.021-.922-2.61l1.054-8.727a6.153 6.153 0 00-.104-2.632 6.1 6.1 0 00-1.192-2.339 5.647 5.647 0 00-2.004-1.433 5.56 5.56 0 00-2.412-.434 6.65 6.65 0 00-3.451 1.012 5.26 5.26 0 00-2.218 2.183c-.047.08-.063.173-.047.265a.384.384 0 00.136.23c.204.154.425.283.66.383.346.186.635.466.834.81.313.552.508 1.166.572 1.8.115 1.115.1 2.24-.045 3.351l-.835 7.018a7.294 7.294 0 001.121 5.352 4.79 4.79 0 001.753 1.546c.7.361 1.478.54 2.263.523a7.747 7.747 0 004.043-1.259 11.454 11.454 0 003.692-3.914 5.572 5.572 0 001.625 3.802 5.217 5.217 0 003.736 1.372 6.656 6.656 0 003.451-1.012 5.264 5.264 0 002.218-2.182.426.426 0 00.05-.327.423.423 0 00-.203-.258 21.84 21.84 0 01-.836-.608 2.883 2.883 0 01-.769-1.731 14.26 14.26 0 01.005-3.92v.003zM105.332 1.275a4.768 4.768 0 00-.637.406c-.41.279-.836.534-1.274.764a8.332 8.332 0 01-2.022.653 12.1 12.1 0 01-2.922.246 31.075 31.075 0 01-5.98-.9 35.335 35.335 0 00-6.766-.944h-1.012c-3.896.121-6.767 1.53-8.613 4.23-.937 1.378-1.332 2.533-1.186 3.463.059.33.204.466.44.405a9.44 9.44 0 00.9-.54 9.722 9.722 0 012.395-.99 12.92 12.92 0 013.603-.454c1.988.064 3.967.313 5.91.742 2.11.438 4.246.73 6.394.877 5.01.121 8.453-1.124 10.328-3.734a4.453 4.453 0 001.01-3.644c-.114-.507-.304-.7-.568-.58zm-.396 24.563l.835-7.018a7.157 7.157 0 00-1.076-5.352 4.843 4.843 0 00-1.777-1.553 4.748 4.748 0 00-2.288-.516 7.88 7.88 0 00-4.105 1.305 11.098 11.098 0 00-3.714 4.049 6.127 6.127 0 00-1.647-3.914 4.821 4.821 0 00-1.623-1.09 4.758 4.758 0 00-1.915-.35 7.906 7.906 0 00-4.043 1.26 10.914 10.914 0 00-3.691 3.914 5.618 5.618 0 00-1.606-3.801 5.197 5.197 0 00-3.758-1.372 6.756 6.756 0 00-3.472 1.012 4.946 4.946 0 00-2.197 2.177.416.416 0 00.154.585c.22.15.498.353.835.608.44.472.704 1.084.747 1.732.163 1.3.155 2.616-.022 3.914-.235 2.069-.864 6.522-1.89 13.361v.09l.13.134h8.836a.57.57 0 00.155-.112.215.215 0 00.066-.157l1.448-12.055a9.058 9.058 0 011.142-3.465c.762-1.169 1.524-1.679 2.286-1.529.85.15 1.172 1.02.966 2.61a66.19 66.19 0 01-.351 3.194c-.264 1.95-.704 5.713-1.318 11.292a.057.057 0 00-.017.07c.004.009.01.015.017.02l.131.132h8.835a.574.574 0 00.155-.112.216.216 0 00.066-.157l1.01-11.248.09-.81a7.9 7.9 0 011.143-3.464c.76-1.17 1.522-1.68 2.284-1.53.85.15 1.172 1.02.968 2.61L95.67 29.03a6.155 6.155 0 00.103 2.633 6.095 6.095 0 001.193 2.339 5.592 5.592 0 001.982 1.428 5.511 5.511 0 002.391.439 6.77 6.77 0 003.472-1.013 5.038 5.038 0 002.196-2.137.383.383 0 00-.044-.517 2.567 2.567 0 00-.659-.405 2.126 2.126 0 01-.835-.81 4.827 4.827 0 01-.593-1.799 12.52 12.52 0 01.06-3.349zm-53.48-2.43c.17-1.768.693-3.483 1.539-5.039a3.144 3.144 0 011.224-1.362 3.073 3.073 0 011.764-.437 2.744 2.744 0 011.6.686c.447.397.756.93.883 1.519.473 1.68.57 3.446.285 5.17a13.182 13.182 0 01-1.517 5.08 3.107 3.107 0 01-1.22 1.336 3.037 3.037 0 01-1.746.418 2.753 2.753 0 01-1.605-.695 2.83 2.83 0 01-.878-1.532 12.26 12.26 0 01-.329-5.143zm15.952 1.174c.232-1.57.132-3.172-.292-4.7a11.254 11.254 0 00-2.168-4.162 11.49 11.49 0 00-3.738-2.993 11.312 11.312 0 00-4.612-1.192 12.59 12.59 0 00-9.206 2.925 12.283 12.283 0 00-3.12 3.692 12.478 12.478 0 00-1.472 4.631 11.319 11.319 0 00.298 4.704 11.203 11.203 0 002.184 4.158 11.566 11.566 0 003.751 2.99 11.388 11.388 0 004.62 1.195c3.34.313 6.666-.73 9.25-2.903a12.37 12.37 0 003.071-3.717 12.561 12.561 0 001.434-4.628zm-25.882 5.714a10.442 10.442 0 01-3.405-2.25 13.414 13.414 0 01-2.33-2.924 19.29 19.29 0 01-1.384-3.058c-.288-.77-.53-1.558-.724-2.359-.104-.498-.17-.868-.2-1.11 4.659-2.34 7.251-5.639 7.779-9.897a6.57 6.57 0 00-.09-2.572 6.513 6.513 0 00-1.07-2.332 5.042 5.042 0 00-1.877-1.546 4.956 4.956 0 00-2.37-.478 7.263 7.263 0 00-2.746.562 6.915 6.915 0 00-2.11 1.237c-.483.45-.637.78-.46.99a5.967 5.967 0 011.097 3.487 9.635 9.635 0 01-.68 3.847 8.405 8.405 0 01-2.152 3.103 4.562 4.562 0 01-3.141 1.305l1.582-13.136a.183.183 0 000-.182l-.136-.044h-.041l-.09-.045a40.193 40.193 0 00-2.79-.967c-1.099-.343-2.813-.748-5.142-1.215a34.867 34.867 0 00-6.547-.72 16.994 16.994 0 00-6.263 1.215A10.147 10.147 0 001.272 5.1 7.626 7.626 0 00.02 8.63a8.062 8.062 0 00.572 3.868 6.935 6.935 0 002.482 3.127 7.707 7.707 0 003.274 1.35 7.255 7.255 0 003.142-.134 10.59 10.59 0 002.44-1.013 5.473 5.473 0 001.56-1.282c.322-.371.561-.808.703-1.282a.646.646 0 00-.132-.652 11.431 11.431 0 00-.747-.54 3.16 3.16 0 01-.835-.81 2.418 2.418 0 01-.638-.927 2.453 2.453 0 01-.152-1.12 4.46 4.46 0 01.79-2.046 4.06 4.06 0 012.065-1.44 5.862 5.862 0 013.077-.181c-.03.302-.66 4.867-1.89 13.696-1.23 8.83-1.92 14.011-2.068 15.546a.184.184 0 000 .181l.132.046h9.36a.24.24 0 00.18-.056.248.248 0 00.089-.17l1.625-13.675c.703-.09 1.113-.15 1.23-.182.088 2.52.177 4.08.268 4.679.381 3.539 1.333 6.223 2.856 8.052 1.523 1.83 3.78 2.58 6.768 2.25a5.81 5.81 0 003.34-1.575 7.236 7.236 0 001.932-2.63c.32-.856.347-1.33.08-1.42l.002.005z" fill="#F6A6BF"/></g><path d="M18.12 57.096c-.843 0-1.6-.187-2.272-.56A4.136 4.136 0 0114.264 55c-.373-.661-.56-1.408-.56-2.24 0-.832.187-1.573.56-2.224A3.99 3.99 0 0115.848 49c.672-.373 1.43-.56 2.272-.56.843 0 1.595.187 2.256.56a3.882 3.882 0 011.568 1.536c.384.65.576 1.392.576 2.224 0 .832-.192 1.579-.576 2.24a4.02 4.02 0 01-1.568 1.536c-.661.373-1.413.56-2.256.56zm0-1.344a2.87 2.87 0 001.456-.368 2.707 2.707 0 001.024-1.056c.245-.459.368-.981.368-1.568 0-.587-.123-1.104-.368-1.552a2.572 2.572 0 00-1.024-1.056 2.868 2.868 0 00-1.456-.368c-.544 0-1.035.123-1.472.368a2.71 2.71 0 00-1.024 1.056c-.245.448-.368.965-.368 1.552 0 .587.123 1.11.368 1.568.256.448.597.8 1.024 1.056.437.245.928.368 1.472.368zm12.625-5.888h-3.104V57h-1.535v-7.136H23V48.52h7.744v1.344zm8.86 2.944c0 .117-.01.272-.032.464h-6.88c.096.747.422 1.35.976 1.808.566.448 1.264.672 2.096.672 1.014 0 1.83-.341 2.448-1.024l.848.992c-.384.448-.864.79-1.44 1.024-.565.235-1.2.352-1.904.352-.896 0-1.69-.181-2.384-.544A4.045 4.045 0 0131.717 55c-.373-.661-.56-1.408-.56-2.24 0-.821.181-1.563.544-2.224A3.97 3.97 0 0133.221 49c.65-.373 1.382-.56 2.192-.56.81 0 1.53.187 2.16.56.64.363 1.136.875 1.488 1.536.363.661.544 1.419.544 2.272zm-4.192-3.072c-.736 0-1.354.224-1.856.672-.49.448-.779 1.035-.864 1.76h5.44c-.085-.715-.379-1.296-.88-1.744-.49-.459-1.104-.688-1.84-.688zm13.714-1.216V57h-1.536v-7.136h-3.648l-.096 1.888c-.053 1.141-.154 2.096-.304 2.864-.149.757-.394 1.365-.736 1.824-.341.459-.816.688-1.424.688-.277 0-.592-.048-.944-.144l.096-1.296c.139.032.267.048.384.048.427 0 .747-.187.96-.56.214-.373.352-.816.416-1.328.064-.512.123-1.243.176-2.192l.144-3.136h6.512zm6.89 2.88c1.078.01 1.899.256 2.464.736.566.48.848 1.157.848 2.032 0 .917-.309 1.627-.928 2.128-.608.49-1.482.73-2.624.72L52.097 57v-8.48h1.536v2.864l2.384.016zm-.368 4.448c.694.01 1.216-.128 1.568-.416.363-.288.544-.715.544-1.28 0-.555-.176-.96-.528-1.216-.341-.256-.869-.39-1.584-.4l-2.016-.032v3.328l2.016.016zm18.572-.192v3.312h-1.44V57h-7.088v1.968h-1.456v-3.312h.448c.544-.032.918-.416 1.12-1.152.203-.736.342-1.776.416-3.12l.128-2.864h6.576v7.136h1.296zm-6.592-4.16c-.042 1.067-.133 1.952-.272 2.656-.128.693-.368 1.195-.72 1.504h4.752v-5.792h-3.68l-.08 1.632zm15.873-2.976V57h-1.536v-7.136h-3.648l-.096 1.888c-.053 1.141-.154 2.096-.304 2.864-.149.757-.394 1.365-.736 1.824-.341.459-.816.688-1.424.688-.277 0-.592-.048-.944-.144l.096-1.296c.139.032.267.048.384.048.427 0 .747-.187.96-.56.214-.373.352-.816.416-1.328.064-.512.123-1.243.176-2.192l.144-3.136h6.512zm9.77 0V57h-1.376v-2.688h-2.64L87.4 57h-1.648l2.064-2.896c-.64-.192-1.13-.507-1.472-.944-.341-.448-.512-1.003-.512-1.664 0-.97.331-1.707.992-2.208.662-.512 1.574-.768 2.736-.768h3.712zM87.4 51.544c0 .565.176.987.528 1.264.363.267.902.4 1.616.4h2.352v-3.344h-2.288c-1.472 0-2.208.56-2.208 1.68zm16.462 1.872h-1.76V57h-1.536v-8.48h1.536v3.584h1.792l2.752-3.584h1.648l-3.216 4.08 3.44 4.4h-1.808l-2.848-3.584zm9.617 3.68c-.842 0-1.6-.187-2.272-.56A4.136 4.136 0 01109.623 55c-.373-.661-.56-1.408-.56-2.24 0-.832.187-1.573.56-2.224A3.99 3.99 0 01111.207 49c.672-.373 1.43-.56 2.272-.56.843 0 1.595.187 2.256.56a3.88 3.88 0 011.568 1.536c.384.65.576 1.392.576 2.224 0 .832-.192 1.579-.576 2.24a4.018 4.018 0 01-1.568 1.536c-.661.373-1.413.56-2.256.56zm0-1.344a2.87 2.87 0 001.456-.368 2.7 2.7 0 001.024-1.056c.246-.459.368-.981.368-1.568 0-.587-.122-1.104-.368-1.552a2.566 2.566 0 00-1.024-1.056 2.866 2.866 0 00-1.456-.368c-.544 0-1.034.123-1.472.368a2.715 2.715 0 00-1.024 1.056c-.245.448-.368.965-.368 1.552 0 .587.123 1.11.368 1.568.256.448.598.8 1.024 1.056.438.245.928.368 1.472.368zm12.626-5.888h-3.104V57h-1.536v-7.136h-3.104V48.52h7.744v1.344zm1.571-1.344h1.536v6.176l5.199-6.176h1.393V57h-1.537v-6.176L129.084 57h-1.408v-8.48zm14.405 4.896h-1.76V57h-1.536v-8.48h1.536v3.584h1.792l2.752-3.584h1.648l-3.216 4.08 3.44 4.4h-1.808l-2.848-3.584zm9.617 3.68c-.843 0-1.6-.187-2.272-.56A4.136 4.136 0 01147.842 55c-.373-.661-.56-1.408-.56-2.24 0-.832.187-1.573.56-2.224A3.99 3.99 0 01149.426 49c.672-.373 1.429-.56 2.272-.56.843 0 1.595.187 2.256.56a3.88 3.88 0 011.568 1.536c.384.65.576 1.392.576 2.224 0 .832-.192 1.579-.576 2.24a4.018 4.018 0 01-1.568 1.536c-.661.373-1.413.56-2.256.56zm0-1.344a2.87 2.87 0 001.456-.368 2.707 2.707 0 001.024-1.056c.245-.459.368-.981.368-1.568 0-.587-.123-1.104-.368-1.552a2.572 2.572 0 00-1.024-1.056 2.87 2.87 0 00-1.456-.368c-.544 0-1.035.123-1.472.368a2.708 2.708 0 00-1.024 1.056c-.245.448-.368.965-.368 1.552 0 .587.123 1.11.368 1.568.256.448.597.8 1.024 1.056.437.245.928.368 1.472.368zm12.394-3.152c1.099.277 1.648.965 1.648 2.064 0 .747-.283 1.323-.848 1.728-.555.405-1.387.608-2.496.608h-4.08v-8.48h3.936c1.003 0 1.787.192 2.352.576.565.373.848.907.848 1.6 0 .448-.123.837-.368 1.168-.235.32-.565.565-.992.736zm-4.272-.432h2.304c.587 0 1.029-.107 1.328-.32.309-.213.464-.523.464-.928 0-.81-.597-1.216-1.792-1.216h-2.304v2.464zm2.464 3.648c.64 0 1.12-.101 1.44-.304.32-.203.48-.517.48-.944 0-.437-.149-.763-.448-.976-.288-.213-.747-.32-1.376-.32h-2.56v2.544h2.464z" fill="#F6A6BF"/><defs><clipPath id="clip0_13_1622"><path fill="#fff" d="M0 0h187v36H0z"/></clipPath></defs></svg>