<svg viewBox="0 0 1706.667 1706.667" xmlns="http://www.w3.org/2000/svg" xmlns:xlink="http://www.w3.org/1999/xlink"><style>:root&gt;svg{display:none}:root&gt;svg:target{display:block}</style><svg viewBox="0 0 50 50" id="cat" xmlns="http://www.w3.org/2000/svg"><path d="M12.424 45h23.2a4.289 4.289 0 004.288-4.29V21.685c4.025-.16 6.432-4.625 4.282-8.095l-1.255-2.025a5.3 5.3 0 00-4.505-2.51h-3.587v-1.59A2.464 2.464 0 0032.382 5a6.112 6.112 0 00-6.11 6.115v8.64c-3.195.315-5.608 1.825-7.38 3.955-1.955 2.35-3.108 5.412-3.793 8.355-.69 2.955-.932 5.895-1.007 8.08-.03.935-.03 1.74-.02 2.355h-1.648a4.927 4.927 0 01-3.6-8.292l2.3-2.468a8.972 8.972 0 00-.215-12.46l-2.257-2.258a1.25 1.25 0 10-1.768 1.768l2.258 2.258a6.467 6.467 0 01.155 8.987l-2.3 2.467A7.433 7.433 0 0012.424 45zM32.35 7.5v2.805a1.25 1.25 0 001.25 1.25h4.835c.97 0 1.87.5 2.38 1.325l1.258 2.027a2.804 2.804 0 01-2.383 4.283h-1.025a1.25 1.25 0 00-1.25 1.25v20.27c0 .987-.8 1.79-1.79 1.79h-1.79v-1.79a7.33 7.33 0 00-7.325-7.333h-2.535a1.25 1.25 0 000 2.5h2.533a4.83 4.83 0 014.83 4.833v1.79H16.572c-.013-.585-.013-1.36.017-2.273.07-2.09.3-4.85.943-7.594.642-2.76 1.675-5.398 3.28-7.326 1.567-1.877 3.695-3.112 6.71-3.112a1.25 1.25 0 001.25-1.25v-9.83A3.612 3.612 0 0132.347 7.5h.002z"/></svg><svg viewBox="0 0 20 20" id="clock" xmlns="http://www.w3.org/2000/svg"><path d="M10 1.25a8.75 8.75 0 10.001 17.501A8.75 8.75 0 0010 1.25zm0 16.016a7.267 7.267 0 010-14.532 7.267 7.267 0 010 14.532z"/><path d="M13.412 12.473l-2.785-2.014V5.625a.157.157 0 00-.156-.156h-.94a.157.157 0 00-.156.156v5.379c0 .05.023.098.064.127l3.23 2.355a.16.16 0 00.22-.033l.558-.762a.156.156 0 00-.035-.218z"/></svg><svg viewBox="0 0 45 45" id="heart" xmlns="http://www.w3.org/2000/svg"><path d="M11.908 3.48c-2.75.396-4.658 1.126-6.477 2.497C1.177 9.167-.792 14.502.316 19.828c.474 2.32 1.696 4.702 3.26 6.372.44.466 3.806 3.279 9.387 7.849 4.79 3.911 8.833 7.207 9 7.321.422.29.712.255 1.213-.123.228-.176 4.184-3.401 8.78-7.163 5.977-4.887 8.613-7.102 9.237-7.743 1.82-1.89 2.98-4.122 3.551-6.83.29-1.335.29-3.858 0-5.185-.536-2.54-1.635-4.737-3.278-6.565-1.934-2.162-4.201-3.463-7.102-4.078-1.256-.273-3.665-.29-4.965-.044a12.922 12.922 0 00-6.24 3.014l-.713.616-.641-.607c-1.53-1.432-3.639-2.478-5.977-2.98-.817-.166-3.26-.298-3.92-.201zm3.006 1.846c.51.07 1.327.264 1.828.43 1.75.572 2.953 1.31 4.43 2.725.914.87.984.923 1.336.923.352 0 .413-.044 1.257-.87 1.775-1.74 3.419-2.628 5.765-3.137 1.029-.229 3.428-.229 4.465 0 2.364.51 4.272 1.564 5.906 3.269.923.958 1.468 1.714 2.013 2.786 1.38 2.707 1.661 6.126.747 9.062-.589 1.863-1.441 3.322-2.742 4.658-.325.334-4.377 3.709-9.018 7.497l-8.42 6.89-.413-.342c-.22-.185-4.087-3.349-8.587-7.023-5.15-4.21-8.375-6.908-8.7-7.277-1.39-1.573-2.303-3.393-2.778-5.564-.281-1.248-.272-3.638 0-4.921.36-1.662 1.01-3.164 1.925-4.43.589-.817 1.722-1.995 2.443-2.54 2.417-1.828 5.467-2.593 8.543-2.136z"/><path d="M17.534 10.934c-2.153.518-3.287 2.944-2.312 4.957.273.57 1.064 1.344 1.697 1.643.474.238.615.255 1.45.264.817 0 .976-.026 1.433-.237.703-.334 1.415-1.029 1.757-1.732.255-.536.282-.642.273-1.459 0-1.125-.211-1.687-.87-2.4a3.484 3.484 0 00-3.428-1.036zm1.837 1.96c.685.483.94 1.415.589 2.18-.668 1.45-2.857 1.291-3.27-.247-.184-.703.07-1.52.607-1.89.632-.439 1.485-.457 2.074-.043zm6.468-1.996c-1.02.22-1.951.958-2.408 1.934-.255.527-.273.642-.273 1.494 0 .853.018.967.273 1.494.73 1.547 2.505 2.356 4.13 1.899a3.61 3.61 0 002.33-2.136c.413-1.055.21-2.487-.484-3.393-.773-1.02-2.276-1.555-3.568-1.292zm1.45 1.837c.712.317 1.187 1.152 1.055 1.846-.159.835-.747 1.406-1.53 1.485a1.75 1.75 0 01-1.388-.448c-.396-.343-.554-.72-.554-1.292 0-1.274 1.274-2.11 2.417-1.59zm-15.556 3.991c-.923.307-1.556.843-1.925 1.634-.272.598-.263 1.995.018 2.567.325.659.765 1.098 1.406 1.415.527.264.66.29 1.38.29.73 0 .835-.027 1.345-.299.659-.36 1.098-.826 1.406-1.494.334-.703.325-1.688 0-2.4-.308-.659-.861-1.239-1.45-1.538-.58-.28-1.609-.36-2.18-.175zm1.398 1.766c.852.352.975 1.635.21 2.171-.351.255-.931.317-1.274.132-.483-.246-.73-.624-.73-1.125 0-.993.87-1.565 1.794-1.178zm18.139-1.678c-.852.36-1.423.957-1.748 1.801-.387 1.029-.08 2.39.712 3.182 1.283 1.283 3.56 1.099 4.614-.387.589-.826.72-2.083.325-2.98-.255-.562-.914-1.247-1.494-1.529-.703-.342-1.714-.378-2.408-.087zm1.785 1.757c.826.554.773 1.75-.105 2.189-1.108.571-2.303-.695-1.662-1.758.378-.615 1.187-.817 1.767-.43zm-11.321.949c-3.533.335-6.495 2.883-7.514 6.46-.159.563-.194.923-.202 1.925 0 1.204.008 1.24.28 1.828.537 1.134 1.697 1.995 2.901 2.171.37.053 1.204 0 2.997-.175l2.479-.255 2.048.22c2.575.272 3.383.29 3.99.052 1.098-.422 1.784-1.037 2.25-2.021.677-1.442.29-4.07-.879-6.02-.475-.783-1.468-1.9-2.224-2.48-1.696-1.309-3.902-1.915-6.126-1.705zm2.567 1.934c3.006.73 5.23 3.49 5.23 6.495 0 .914-.194 1.38-.774 1.82-.607.465-.87.474-3.639.193l-2.478-.255-2.496.255c-2.163.22-2.558.246-2.927.15-.94-.247-1.486-1.029-1.486-2.119 0-3.401 2.743-6.38 6.18-6.715a6.69 6.69 0 012.39.176z"/></svg><svg viewBox="0 0 30 30" id="instagram" xmlns="http://www.w3.org/2000/svg"><path d="M14.999 8.991A6 6 0 008.99 15 6 6 0 0015 21.009 6 6 0 0021.008 15a6 6 0 00-6.01-6.009zm0 9.914A3.914 3.914 0 0111.094 15a3.914 3.914 0 013.905-3.905A3.914 3.914 0 0118.904 15 3.914 3.914 0 0115 18.905zm6.255-11.56a1.402 1.402 0 100 2.806 1.4 1.4 0 001.297-1.94 1.402 1.402 0 00-1.297-.866zM26.712 15c0-1.617.015-3.22-.076-4.834-.091-1.875-.519-3.54-1.89-4.91-1.374-1.374-3.035-1.799-4.91-1.89-1.617-.09-3.22-.076-4.834-.076-1.617 0-3.22-.015-4.834.076-1.875.091-3.54.519-4.91 1.89-1.374 1.374-1.8 3.035-1.89 4.91-.09 1.617-.076 3.22-.076 4.834 0 1.614-.015 3.22.076 4.834.09 1.875.519 3.539 1.89 4.91 1.374 1.374 3.035 1.799 4.91 1.89 1.617.09 3.22.076 4.834.076 1.617 0 3.22.015 4.834-.076 1.875-.091 3.539-.519 4.91-1.89 1.374-1.374 1.799-3.035 1.89-4.91.093-1.614.076-3.217.076-4.834zm-2.578 6.908a3.724 3.724 0 01-.885 1.342c-.413.413-.809.67-1.342.885-1.54.612-5.2.474-6.908.474-1.708 0-5.37.138-6.911-.471a3.723 3.723 0 01-1.342-.885 3.748 3.748 0 01-.885-1.342c-.61-1.544-.471-5.203-.471-6.911 0-1.708-.138-5.37.471-6.911.214-.533.472-.932.885-1.342.413-.41.809-.67 1.342-.885 1.54-.61 5.203-.471 6.91-.471 1.709 0 5.371-.138 6.912.471.533.214.932.472 1.342.885.413.413.67.809.885 1.342.609 1.54.471 5.203.471 6.911 0 1.708.138 5.367-.474 6.908z"/></svg><svg viewBox="0 0 25 25" id="location" xmlns="http://www.w3.org/2000/svg"><path fill-rule="evenodd" clip-rule="evenodd" d="M8.082 6.008a6.23 6.23 0 014.419-1.841c1.656 0 3.245.661 4.418 1.84a6.311 6.311 0 011.832 4.45c0 2.878-1.596 5.483-3.259 7.406a21.562 21.562 0 01-2.991 2.841 21.563 21.563 0 01-2.992-2.84c-1.663-1.924-3.258-4.53-3.258-7.407 0-1.67.659-3.27 1.831-4.45zm4.119 15.772l.3-.426.3.426a.522.522 0 01-.6 0zm0 0l.3-.426.3.426.002-.001.005-.004.016-.012.061-.044c.052-.039.128-.095.224-.169.192-.147.463-.363.788-.64a22.598 22.598 0 002.383-2.365c1.723-1.993 3.512-4.837 3.512-8.089a7.353 7.353 0 00-2.134-5.182A7.272 7.272 0 0012.5 3.125a7.272 7.272 0 00-5.158 2.148 7.353 7.353 0 00-2.134 5.184c0 3.25 1.79 6.095 3.512 8.088a22.604 22.604 0 003.171 3.005c.094.072.19.144.285.213l.017.012.005.004h.002zm-1.784-11.363a2.083 2.083 0 114.167 0 2.083 2.083 0 01-4.167 0zm2.084-3.125a3.125 3.125 0 100 6.25 3.125 3.125 0 000-6.25z"/></svg><svg viewBox="0 0 22 22" id="phone" xmlns="http://www.w3.org/2000/svg"><path d="M7.19 2.329c-1.145-.29-2.344-.167-3.283.358-.957.535-1.628 1.483-1.661 2.751-.05 1.983.408 4.642 2.23 7.764 1.798 3.083 3.784 4.932 5.431 6.03 1.041.693 2.19.712 3.173.26.968-.445 1.753-1.335 2.161-2.439a2.023 2.023 0 00-.132-1.69l-1.05-1.873a2.75 2.75 0 00-3.38-1.224l-.733.28c-.355.136-.682.073-.867-.11-.621-.61-1.066-1.438-1.267-2.331-.064-.282.066-.614.376-.849l.661-.499a2.75 2.75 0 00.73-3.563L8.508 3.33a2.122 2.122 0 00-1.32-1.001zM3.345 5.467c.022-.851.453-1.46 1.098-1.82.662-.371 1.566-.484 2.475-.253.27.068.498.241.637.482l1.068 1.865a1.65 1.65 0 01-.437 2.137l-.661.5c-.572.43-.968 1.17-.788 1.967.244 1.08.785 2.105 1.57 2.876.574.563 1.393.596 2.03.352l.733-.28a1.65 1.65 0 012.03.734l1.048 1.873a.922.922 0 01.06.77c-.319.864-.918 1.512-1.589 1.821-.657.303-1.4.294-2.102-.176-1.508-1.005-3.377-2.73-5.093-5.668C3.708 9.7 3.3 7.242 3.347 5.468l-.001-.001zM14.018 2.27a.55.55 0 00-.534.96l.422.236a9.35 9.35 0 014.763 7.243l.035.346a.55.55 0 101.094-.11l-.034-.345a10.45 10.45 0 00-5.324-8.096l-.421-.235z"/><path d="M12.729 5.217a.55.55 0 01.754-.188l.137.082a7.15 7.15 0 013.374 4.955l.049.294a.549.549 0 11-1.085.181l-.05-.293a6.05 6.05 0 00-2.854-4.194l-.136-.082a.55.55 0 01-.19-.755z"/></svg><svg viewBox="0 0 30 30" id="plus" xmlns="http://www.w3.org/2000/svg"><path d="M0 13.999h30v2H0z"/><path d="M14 30V0h2v30z"/></svg><svg viewBox="0 0 70 57" id="pow" xmlns="http://www.w3.org/2000/svg"><path d="M46.492.159c-5.604 1.464-8.967 8.464-6.603 13.727 2.997 6.652 12.012 5.783 15.375-1.465.706-1.539.78-1.886.78-4.17 0-2.21-.074-2.631-.683-3.897a8.377 8.377 0 00-3.63-3.699C50.586.06 47.88-.189 46.49.16zm3.825 4.294c1.267.894 1.78 1.763 1.901 3.252.439 5.535-6.189 9.184-8.65 4.741-2.34-4.195 3.021-10.55 6.75-7.993zM18.713.581c-1.486.547-3.338 2.359-4.142 4.022-.61 1.266-.682 1.688-.682 3.897 0 2.284.073 2.631.78 4.17 1.583 3.426 4.653 5.66 8.04 5.833 2.29.124 3.826-.397 5.41-1.837C31.87 13.241 31.7 7.01 27.753 2.99 25.926 1.128 24.171.333 21.686.26c-1.291-.05-2.29.074-2.973.322zm4.752 4.047c1.973 1.042 3.216 3.003 3.41 5.361.44 5.635-6.286 6.305-8.698.869-.974-2.21-.463-4.965 1.17-6.106 1.096-.745 2.826-.795 4.118-.124zM60.186 16.89c-3.192.843-5.483 2.68-6.871 5.585-.878 1.762-.926 2.035-.926 4.12 0 1.862.097 2.458.56 3.4.731 1.515 1.974 2.806 3.533 3.65 1.121.595 1.535.67 3.606.67 2.193 0 2.413-.05 4.143-.918 6.895-3.476 7.821-12.71 1.632-15.813-1.803-.918-3.874-1.166-5.677-.694zm4.24 4.343c1.583 1.192 2.046 2.905 1.364 4.99-1.023 3.177-5.02 5.163-7.675 3.798-2.608-1.316-2.632-5.015-.025-7.596 1.78-1.762 4.825-2.333 6.336-1.192zM5.093 17.807c-1.901.62-3.51 2.035-4.41 3.922C.096 22.945 0 23.442 0 25.279c0 1.936.073 2.258.926 3.996 3.411 7.05 12.646 7.943 15.96 1.564.585-1.092.658-1.514.658-3.6-.025-2.06-.098-2.531-.707-3.773-1.389-2.929-4.215-5.262-7.164-5.883-1.778-.372-2.85-.322-4.58.224zm5.165 4.12c2.802 1.366 4.289 4.915 3.07 7.298-.56 1.068-2.217 1.986-3.582 1.986-2.923 0-5.97-3.177-5.97-6.18 0-1.366 1.073-2.905 2.437-3.476.829-.372 2.924-.174 4.045.372zm21.322 1.491c-3.217.869-6.384 3.574-7.87 6.776-.853 1.788-.902 1.837-2.656 2.706-1.292.62-2.266 1.34-3.387 2.507-6.823 7.075-3.607 18.741 5.848 21.248 3.24.869 7.456.05 10.209-1.936l1.243-.918 1.242.918c2.705 1.986 6.701 2.755 10.064 1.961 5.677-1.365 9.649-6.528 9.649-12.51 0-4.642-2.9-9.26-7.067-11.295-1.803-.893-1.827-.918-2.655-2.706-1.487-3.276-4.874-6.081-8.31-6.875-1.559-.373-4.75-.298-6.31.124zm6.408 4.095c2.412.894 4.581 3.351 5.288 5.933.414 1.49.804 1.936 2.168 2.333 1.852.571 2.973 1.266 4.215 2.607 1.755 1.911 2.242 3.152 2.242 5.858 0 1.886-.097 2.432-.633 3.624-.902 1.96-2.193 3.301-4.07 4.245-1.461.744-1.827.819-3.825.819-1.9 0-2.363-.1-3.557-.67-.756-.398-1.974-1.316-2.73-2.06-1.827-1.838-2.387-1.838-4.264 0-.755.769-1.998 1.687-2.729 2.06-1.17.57-1.632.67-3.533.67-1.851 0-2.412-.1-3.557-.646-1.925-.918-3.24-2.234-4.167-4.145-.73-1.514-.804-1.862-.804-3.897.024-2.706.512-3.972 2.242-5.858 1.242-1.34 2.363-2.036 4.215-2.607 1.365-.397 1.755-.844 2.169-2.333.706-2.557 2.875-5.014 5.214-5.933 1.73-.67 4.362-.695 6.116 0z" opacity=".7"/></svg><svg viewBox="0 0 90 90" id="pow2" xmlns="http://www.w3.org/2000/svg"><path d="M32.986 16.735c-2.927 4.998-.355 12.326 5.037 14.376 6.823 2.585 12.584-4.405 9.836-11.908-.588-1.588-.782-1.885-2.397-3.5-1.562-1.562-1.912-1.809-3.238-2.273a8.378 8.378 0 00-5.183-.048c-1.23.388-3.319 2.125-4.055 3.353zM13.644 36.676c-.665 1.437-.693 4.028-.085 5.772.464 1.326.71 1.676 2.273 3.238 1.615 1.615 1.912 1.81 3.5 2.398 3.542 1.302 7.293.71 9.81-1.561 1.708-1.532 2.425-2.986 2.527-5.124.23-5.075-4.295-9.36-9.93-9.413-2.609-.024-4.41.655-6.221 2.36-.948.878-1.567 1.672-1.874 2.33zM54.5 18.883c-1.66 2.854-1.98 5.772-.91 8.808.627 1.866.785 2.094 2.26 3.568 1.316 1.316 1.806 1.669 2.8 2.008 1.588.554 3.38.588 5.08.082 1.213-.371 1.559-.611 3.023-2.076 1.55-1.55 1.67-1.74 2.28-3.578 2.418-7.334-3.456-14.518-10.027-12.335-1.924.625-3.564 1.914-4.506 3.523zM16.192 58.488c-.905 1.782-1.042 3.92-.345 5.891.446 1.274.728 1.694 2.027 2.993 1.37 1.369 1.65 1.545 3.48 2.171 7.398 2.573 14.56-3.325 12.392-10.18-.359-1.185-.605-1.535-2.08-3.01-1.474-1.44-1.86-1.721-3.167-2.168-3.054-1.09-6.702-.74-9.226.906-1.52.994-2.244 1.787-3.08 3.397zm21.923-4.404c-1.213-3.316-.886-7.469.774-10.357.804-1.401 3.008-3.711 4.374-4.55 2.991-1.868 7.37-2.28 10.738-1.014 1.85.678 1.884.679 3.79.035 4.386-1.507 9.701-.292 12.984 2.99 4.23 4.23 5.072 10.69 2.023 15.67-1.816 2.939-5.186 5.22-8.502 5.729l-1.529.229-.229 1.528c-.543 3.351-2.944 6.91-5.85 8.588-8.458 4.912-18.982-1.063-19.16-10.89-.032-1.617.148-2.815.622-4.167.627-1.855.626-1.925-.035-3.791z" opacity=".7"/></svg><svg version="1.0" viewBox="0 0 1280 1280" id="up" xmlns="http://www.w3.org/2000/svg"><path d="M461.5 32.4c-16.7 3.9-29.3 11.2-43.6 25.5C406.3 69.4 398 81.1 390 97c-47.7 95.4-31.6 252.8 35.3 343 9.1 12.3 24.9 28.5 35.7 36.6 35.4 26.7 75.2 28.1 107.1 3.8 32.7-25 55.1-73.2 63.6-136.9 2.1-16.4 2.5-67.2.5-84-8.2-70.2-29.1-128.3-61.8-172.2-8.2-10.9-24.3-27.3-34.4-35-9.4-7.1-27.2-16.3-36.5-18.8-8.3-2.3-30.2-2.9-38-1.1zm393.1 20.2c-31.1 6.1-63.6 29.9-90.5 66.1-34.6 46.5-58 108-66.8 175.8-2.8 21.6-2.5 69.8.5 89.4 7 44.7 21.9 78.9 44.2 101.1 19.1 19.2 43.1 28.1 67.5 25.2 58.1-7.2 115.4-70.6 146-161.6 25.4-75.5 28.1-155 7.3-215.6-20.3-59.1-61.5-89.7-108.2-80.4zM209.5 379c-40.9 6.5-71.7 39.5-85.6 91.9-7.9 30.1-9 71.6-2.8 108.1 14.3 85 63.5 163.1 121.7 193.3 29.8 15.4 59.5 18.1 85 7.5 37.6-15.6 62.3-56 70.4-115.3 1.6-11.9 1.6-47.2-.1-61-13-110.2-80.9-206.9-156.4-223-8.9-1.9-24.7-2.6-32.2-1.5zm847.5 81c-36 7.7-71.3 33-100.6 72.2-31.8 42.6-53.2 98.2-59.4 154.2-1.6 14.6-1.3 46 .5 60.1 12.2 94.8 76.6 140.3 149.5 105.9 39.1-18.5 74.5-56.6 99.8-107.3 48-96 44.9-208.5-7.3-260.6-22-22-52.3-31-82.5-24.5zM622.5 637.9c-66.2 11.8-149.7 81.3-223.7 186.1-57.9 82.1-98.7 170.5-110.9 240.5-2.9 16.8-3.2 46.8-.6 58.3 4.1 17.9 11 29.7 24.4 42.2 22.4 20.7 49.3 32.9 83 37.6 17.5 2.4 52.9 1.5 75.4-1.9 30.1-4.7 55.5-10.8 112.4-27.2 55-15.8 70.4-19.1 85.6-18.1 19.3 1.3 33.8 6 75.4 24.3 29.8 13.1 46.4 19.3 60.6 22.8 53 12.8 97.6-3.9 143.5-53.7 13.7-14.8 17.9-22 22.2-37.7 2.4-9 2.6-11 2.6-32.1 0-19.1-.3-24.5-2.3-35.5-11.8-66.7-46.9-147.3-97.6-224-60.3-91.2-131.1-156.9-190.2-176.4-21.5-7.1-39.8-8.7-59.8-5.2z"/></svg></svg>